<svg width="24" height="24" viewBox="0 0 146 146" fill="none" xmlns="http://www.w3.org/2000/svg">
<path d="M126.531 43.4131C126.579 41.6746 126.272 39.9445 125.628 38.3289C124.984 36.7134 124.017 35.2464 122.786 34.018L97.382 8.614C94.9518 6.22685 91.6854 4.8831 88.2789 4.8691H29.2C23.8491 4.8691 19.4691 9.198 19.4691 14.6V131.4C19.4691 136.751 23.8491 141.131 29.2 141.131H116.8C122.151 141.131 126.531 136.751 126.531 131.4V43.4131ZM90.0309 21.9511L109.449 41.3691H90.0309V21.9511V21.9511ZM111.931 126.531H34.0691V19.4691H75.4309V43.1211C75.4309 50.1729 81.176 55.9691 88.2789 55.9691H111.931V126.531V126.531Z" fill="black"/>
<path d="M58.4146 49.64C59.4571 49.6719 60.4953 49.4942 61.4678 49.1173C62.4403 48.7404 63.3271 48.172 64.0758 47.4459C64.8245 46.7198 65.4197 45.8508 65.8262 44.8903C66.2327 43.9298 66.4421 42.8975 66.4421 41.8545C66.4421 40.8116 66.2327 39.7793 65.8262 38.8188C65.4197 37.8583 64.8245 36.9893 64.0758 36.2632C63.3271 35.5371 62.4403 34.9687 61.4678 34.5918C60.4953 34.2149 59.4571 34.0372 58.4146 34.0691C56.391 34.1311 54.4711 34.9785 53.0616 36.4318C51.6522 37.8851 50.8639 39.83 50.8639 41.8545C50.8639 43.8791 51.6522 45.824 53.0616 47.2773C54.4711 48.7306 56.391 49.578 58.4146 49.64V49.64Z" fill="black"/>
<path fill-rule="evenodd" clip-rule="evenodd" d="M73.9709 66.5103C73.9709 58.2321 67.0067 52.2388 58.4 52.2388C49.8006 52.2388 42.8291 58.2248 42.8291 66.5103V70.4012C42.8291 71.0905 43.1029 71.7515 43.5903 72.2388C44.0776 72.7262 44.7387 73 45.4279 73H71.3794C72.0674 72.9981 72.7265 72.7234 73.2123 72.2363C73.6981 71.7491 73.9709 71.0892 73.9709 70.4012V66.5103ZM45.0191 91.25C45.0191 90.282 45.4037 89.3536 46.0882 88.6691C46.7727 87.9846 47.7011 87.6 48.6691 87.6H97.3309C98.2989 87.6 99.2273 87.9846 99.9118 88.6691C100.596 89.3536 100.981 90.282 100.981 91.25C100.981 92.218 100.596 93.1464 99.9118 93.831C99.2273 94.5155 98.2989 94.9 97.3309 94.9H48.6691C47.7011 94.9 46.7727 94.5155 46.0882 93.831C45.4037 93.1464 45.0191 92.218 45.0191 91.25ZM45.0191 108.281C45.0191 107.313 45.4037 106.384 46.0882 105.7C46.7727 105.015 47.7011 104.631 48.6691 104.631H97.3309C98.2989 104.631 99.2273 105.015 99.9118 105.7C100.596 106.384 100.981 107.313 100.981 108.281C100.981 109.249 100.596 110.177 99.9118 110.862C99.2273 111.546 98.2989 111.931 97.3309 111.931H48.6691C47.7011 111.931 46.7727 111.546 46.0882 110.862C45.4037 110.177 45.0191 109.249 45.0191 108.281Z" fill="black"/>
</svg>
